HIERARCHY
ROOT hip
{
	OFFSET 0.000000 0.000000 0.000000 
	CHANNELS 6 Xposition Yposition Zposition Xrotation Zrotation Yrotation
	JOINT abdomen
	{
		OFFSET 0.000000 3.402643 0.000000 
		CHANNELS 3 Xrotation Zrotation Yrotation
		JOINT chest
		{
			OFFSET 0.000000 8.438565 -0.680529 
			CHANNELS 3 Xrotation Zrotation Yrotation
			JOINT neck
			{
				OFFSET 0.000000 10.207942 -0.272212 
				CHANNELS 3 Xrotation Zrotation Yrotation
				JOINT head
				{
					OFFSET 0.000000 3.130431 0.000000 
					CHANNELS 3 Xrotation Zrotation Yrotation
					End Site
					{
						OFFSET 0.000000 3.130435 0.000000 
					}
				}
			}
			JOINT lCollar
			{
				OFFSET 3.470700 6.669187 -0.816635 
				CHANNELS 3 Yrotation Zrotation Xrotation
				JOINT lShldr
				{
					OFFSET 3.198488 0.000000 0.000000 
					CHANNELS 3 Zrotation Yrotation Xrotation
					JOINT lForeArm
					{
						OFFSET 10.139888 0.000000 0.000000 
						CHANNELS 3 Yrotation Zrotation Xrotation
						JOINT lHand
						{
							OFFSET 8.370511 0.000000 0.000000 
							CHANNELS 3 Zrotation Yrotation Xrotation
							End Site
							{
								OFFSET 4.083176 0.000000 0.000000 
							}
						}
					}
				}
			}
			JOINT rCollar
			{
				OFFSET -3.470700 6.669187 -0.816635 
				CHANNELS 3 Yrotation Zrotation Xrotation
				JOINT rShldr
				{
					OFFSET -3.198488 0.000000 0.000000 
					CHANNELS 3 Zrotation Yrotation Xrotation
					JOINT rForeArm
					{
						OFFSET -10.139888 0.000000 0.000000 
						CHANNELS 3 Yrotation Zrotation Xrotation
						JOINT rHand
						{
							OFFSET -8.370511 0.000000 0.000000 
							CHANNELS 3 Zrotation Yrotation Xrotation
							End Site
							{
								OFFSET -4.083176 0.000000 0.000000 
							}
						}
					}
				}
			}
		}
	}
	JOINT lThigh
	{
		OFFSET 5.308129 -1.633274 1.361059 
		CHANNELS 3 Xrotation Zrotation Yrotation
		JOINT lShin
		{
			OFFSET -2.041588 -20.007561 0.000000 
			CHANNELS 3 Xrotation Zrotation Yrotation
			JOINT lFoot
			{
				OFFSET 0.000000 -19.190928 -1.224953 
				CHANNELS 3 Xrotation Yrotation Zrotation
				End Site
				{
					OFFSET 0.000000 -2.449906 4.627600 
				}
			}
		}
	}
	JOINT rThigh
	{
		OFFSET -5.308129 -1.633274 1.361059 
		CHANNELS 3 Xrotation Zrotation Yrotation
		JOINT rShin
		{
			OFFSET 2.041588 -20.007561 0.000000 
			CHANNELS 3 Xrotation Zrotation Yrotation
			JOINT rFoot
			{
				OFFSET 0.000000 -19.190928 -1.224953 
				CHANNELS 3 Xrotation Yrotation Zrotation
				End Site
				{
					OFFSET 0.000000 -2.449906 4.627600 
				}
			}
		}
	}
}
MOTION
Frames: 8
Frame Time: 0.016667
-11.214800 48.360699 105.655502 -12.774777 -2.224447 -7.965077 31.115992 -2.791851 -5.055187 -11.668433 11.539073 -3.696232 9.534921 7.300506 1.950177 27.460770 -2.565679 2.619808 -5.860229 -5.018535 -0.009677 -72.990372 -18.704943 5.866720 -121.362160 1.236203 15.321320 2.600338 25.875614 1.129767 11.455355 1.658217 -0.009850 60.253803 11.650655 3.093138 120.301979 0.181651 -1.276648 -18.819071 0.406512 -0.169483 -2.372692 12.853489 6.263137 38.797905 -0.740958 -2.975955 -2.648116 15.072346 -11.166783 -9.510186 -14.040387 -1.949717 37.958660 0.732290 2.932032 -3.233084 -1.904568 12.043632 
-11.215217 48.357403 105.674431 -12.890840 -2.108691 -7.905787 31.056181 -2.704586 -4.986427 -11.658990 11.247325 -3.642624 9.531170 8.050992 2.159982 27.338491 -2.848029 2.854831 -5.762510 -4.657223 -0.009684 -73.117775 -18.096617 5.622884 -121.558952 1.052647 13.062377 3.872640 25.603754 1.668661 11.240597 2.166065 -0.009941 60.191772 11.676896 3.337605 120.725029 0.133574 -0.793441 -19.949619 1.553927 -0.584493 -2.245385 12.677251 6.181429 38.758148 -0.740725 -2.993408 -2.671730 15.152561 -11.132688 -9.403542 -14.227208 -2.079991 38.046501 0.732363 2.936351 -3.390849 -1.799501 12.048102 
-11.221183 48.375946 105.694725 -12.946022 -1.974239 -7.700137 30.959517 -2.694696 -5.025445 -11.617557 11.656016 -3.698181 9.326541 7.941898 2.476222 27.243414 -2.671623 3.196713 -5.752769 -4.803709 -0.009682 -73.223747 -17.423456 5.278802 -121.684547 0.881506 11.046506 4.519708 25.234478 1.922041 11.035445 1.726646 -0.009875 60.479420 11.687302 3.918984 121.347176 0.087826 -0.243857 -21.778030 1.679604 -0.691920 -2.148468 12.545341 5.960230 38.573307 -0.748558 -2.967415 -2.609027 15.198800 -11.150802 -9.226039 -14.419586 -2.341903 37.958660 0.732289 2.932033 -3.442081 -1.692784 12.050935 
-11.227146 48.394444 105.715019 -13.000231 -1.839631 -7.494189 30.861971 -2.675079 -5.064462 -11.576274 12.054907 -3.753953 9.130958 7.842373 2.791104 27.150862 -2.495266 3.528421 -5.752793 -4.940428 -0.009680 -73.337601 -16.759474 4.930270 -121.812286 0.703875 9.030165 5.167540 24.862040 2.180940 10.830296 1.296993 -0.009810 60.768944 11.692760 4.498392 121.971100 0.048337 0.305086 -23.606493 1.803787 -0.798675 -2.030604 12.384769 5.771693 38.357273 -0.763866 -2.990983 -2.582852 15.273546 -11.155285 -9.039171 -14.612411 -2.614997 37.880795 0.742033 2.921655 -3.486346 -1.617640 12.061636 
-11.232335 48.399628 105.731476 -12.994586 -1.704834 -7.298358 30.709368 -2.674753 -5.142501 -11.718657 12.258165 -3.855557 9.277396 8.123991 2.970650 27.221752 -2.796915 3.695580 -5.332860 -4.872139 -0.009688 -73.422508 -16.121830 5.106558 -121.759552 0.527040 6.963249 5.260712 24.625803 2.189522 10.898633 1.170029 -0.009787 61.002285 11.483351 4.918175 122.512299 -0.022393 1.128848 -24.650595 3.139348 -1.471684 -2.040718 12.252398 5.537968 38.260391 -0.763743 -2.966752 -2.627224 15.437701 -11.125208 -9.040200 -14.594538 -2.241320 37.958660 0.732287 2.932032 -3.456172 -2.085731 12.027613 
-11.237508 48.404774 105.747932 -12.987076 -1.579623 -7.092788 30.565643 -2.664698 -5.220540 -11.863947 12.461192 -3.968807 9.416400 8.415191 3.150260 27.301302 -3.088683 3.862859 -4.922691 -4.794084 -0.009696 -73.513840 -15.489611 5.269502 -121.712906 0.344771 4.903776 5.357701 24.378965 2.209437 10.966971 1.043064 -0.009763 61.234291 11.279723 5.331765 123.057358 -0.093141 1.956628 -25.709658 4.445881 -2.158516 -2.050081 12.101863 5.283471 38.162430 -0.763835 -2.971667 -2.676908 15.642416 -11.121464 -9.023424 -14.599119 -1.868739 38.046501 0.732373 2.936355 -3.447497 -2.555842 11.992785 
-11.238442 48.399418 105.761719 -13.043004 -1.483303 -6.906775 30.522633 -2.567882 -5.112781 -12.085411 12.539715 -3.930666 9.442817 8.512618 3.159926 27.569717 -3.147071 3.882356 -5.244955 -4.784264 -0.009691 -73.311951 -14.689334 5.109848 -121.943695 0.207903 3.367247 6.026213 23.391685 2.385509 10.771666 1.082159 -0.009776 61.242298 11.057760 5.832409 123.724670 -0.233988 3.576675 -26.731821 3.996258 -2.031790 -2.030813 12.024214 5.181793 38.163414 -0.770033 -2.944532 -2.713804 15.619472 -11.118640 -8.944797 -14.725413 -1.999323 38.144245 0.722633 2.937976 -3.554324 -2.592790 11.969286 
-11.239367 48.394077 105.775475 -13.087634 -1.396619 -6.711029 30.480846 -2.480752 -5.005024 -12.295492 12.628128 -3.883012 9.469271 8.610046 3.171040 27.847849 -3.205456 3.902391 -5.576982 -4.764677 -0.009686 -73.108261 -13.885007 4.944705 -122.172745 0.077173 1.831823 6.683929 22.392309 2.549165 10.576358 1.111489 -0.009787 61.241066 10.837374 6.331139 124.397484 -0.379911 5.206234 -27.754612 3.552750 -1.889658 -2.010760 11.924492 5.108465 38.172543 -0.763838 -2.962457 -2.809193 15.609140 -11.069975 -8.872966 -14.836123 -2.119276 38.242348 0.712699 2.929944 -3.640765 -2.622599 11.969005 
